:FULLY-SPECIFIED
:FORCE-ALL-JOINTS-BE-3DOF
:DEGREES
307
root 10.0125 16.6859 6.18885 7.58415 7.08506 4.96496
lfemur 13.7808 3.28805 -28.3306
ltibia 0.250184 0 0
lfoot -15.9538 -0.0848381 0
ltoes 0.713077 0 0
rfemur -43.0743 12.3673 3.08762
rtibia 26.7568 0 0
rfoot -29.7251 -18.7265 0
rtoes -21.2713 0 0
lowerback -8.09468 -4.71379 -6.60044
upperback -0.665137 -5.75543 1.84995
thorax 4.68819 -3.00485 4.89605
lowerneck -19.4363 -4.95245 -12.5129
upperneck 21.8701 -6.21039 12.0016
head 11.0807 -2.47329 5.5526
lclavicle -9.24474e-14 2.2821e-14 0
lhumerus -12.6025 -37.576 90.9545
lradius 38.6354 0 0
lwrist 15.8821 0 0
lhand -10.6418 -21.5749 0
lfingers 7.12502 0 0
lthumb 15.3654 7.83092 0
rclavicle -9.24474e-14 2.2821e-14 0
rhumerus -49.0381 4.94834 -82.2701
rradius 32.983 0 0
rwrist -17.5292 0 0
rhand -26.4239 -25.5965 0
rfingers 7.12502 0 0
rthumb 0.136331 -55.5756 0
308
root 10.0036 16.6804 6.34382 7.63905 7.35391 4.96625
lfemur 14.3715 3.27618 -28.133
ltibia -0.0328192 0 0
lfoot -15.56 -0.214134 0
ltoes 0.613849 0 0
rfemur -43.2057 12.6569 2.90164
rtibia 25.9429 0 0
rfoot -29.7027 -18.6452 0
rtoes -21.3238 0 0
lowerback -8.16407 -4.75862 -6.6481
upperback -0.694121 -5.8087 1.8554
thorax 4.70817 -3.03229 4.91873
lowerneck -19.3685 -4.99958 -12.5558
upperneck 21.842 -6.28111 12.0479
head 11.0709 -2.50565 5.56509
lclavicle -9.27683e-14 2.27822e-14 0
lhumerus -12.7172 -37.9893 91.1862
lradius 38.8527 0 0
lwrist 16.1543 0 0
lhand -10.5281 -21.5134 0
lfingers 7.12502 0 0
lthumb 15.4749 7.88494 0
rclavicle -9.27683e-14 2.27822e-14 0
rhumerus -49.0996 4.88366 -82.2655
rradius 32.7161 0 0
rwrist -17.3854 0 0
rhand -26.3823 -25.7069 0
rfingers 7.12502 0 0
rthumb 0.176497 -55.6862 0
309
root 9.99412 16.6756 6.50028 7.68185 7.605 4.95195
lfemur 14.8905 3.27372 -27.9127
ltibia -0.174798 0 0
lfoot -15.1373 -0.322361 0
ltoes 0.489823 0 0
rfemur -43.3137 12.8887 2.79125
rtibia 25.2615 0 0
rfoot -29.6509 -18.5265 0
rtoes -21.3474 0 0
lowerback -8.22067 -4.79907 -6.67997
upperback -0.721114 -5.85801 1.86457
thorax 4.72122 -3.05742 4.93793
lowerneck -19.3101 -5.04228 -12.5954
upperneck 21.8155 -6.3457 12.0945
head 11.0626 -2.53466 5.57818
lclavicle -9.28366e-14 2.26794e-14 0
lhumerus -12.8517 -38.318 91.4182
lradius 39.0103 0 0
lwrist 16.3657 0 0
lhand -10.4281 -21.4608 0
lfingers 7.12502 0 0
lthumb 15.5713 7.93085 0
rclavicle -9.28366e-14 2.26794e-14 0
rhumerus -49.1451 4.82457 -82.2566
rradius 32.4736 0 0
rwrist -17.2537 0 0
rhand -26.3511 -25.8002 0
rfingers 7.12502 0 0
rthumb 0.2067 -55.7797 0
310
root 9.98408 16.6718 6.65827 7.7115 7.83701 4.92122
lfemur 15.3338 3.28112 -27.6687
ltibia -0.166832 0 0
lfoot -14.6848 -0.407964 0
ltoes 0.339316 0 0
rfemur -43.3984 13.0587 2.76159
rtibia 24.7234 0 0
rfoot -29.5695 -18.3687 0
rtoes -21.3403 0 0
lowerback -8.26352 -4.83499 -6.69508
upperback -0.74581 -5.90331 1.87771
thorax 4.72701 -3.08018 4.95346
lowerneck -19.262 -5.08008 -12.6314
upperneck 21.791 -6.40354 12.141
head 11.0559 -2.55998 5.59184
lclavicle -9.26388e-14 2.25081e-14 0
lhumerus -13.0057 -38.5567 91.65
lradius 39.1044 0 0
lwrist 16.5124 0 0
lhand -10.3431 -21.418 0
lfingers 7.12502 0 0
lthumb 15.6532 7.96807 0
rclavicle -9.26388e-14 2.25081e-14 0
rhumerus -49.1732 4.77143 -82.2427
rradius 32.2578 0 0
rwrist -17.1348 0 0
rhand -26.3308 -25.8749 0
rfingers 7.12502 0 0
rthumb 0.226283 -55.8544 0
311
root 9.97349 16.6689 6.81787 7.72693 8.04859 4.87323
lfemur 15.6972 3.2988 -27.4002
ltibia -2.54444e-14 0 0
lfoot -14.2018 -0.469387 0
ltoes 0.160646 0 0
rfemur -43.4598 13.1624 2.81778
rtibia 24.3393 0 0
rfoot -29.4581 -18.1703 0
rtoes -21.3003 0 0
lowerback -8.29164 -4.86624 -6.69241
upperback -0.767904 -5.94455 1.89509
thorax 4.72517 -3.10053 4.96512
lowerneck -19.225 -5.11254 -12.6632
upperneck 21.7688 -6.45398 12.1874
head 11.0511 -2.58129 5.60607
lclavicle -9.21615e-14 2.22639e-14 0
lhumerus -13.1791 -38.6996 91.8812
lradius 39.1309 0 0
lwrist 16.5902 0 0
lhand -10.2743 -21.3856 0
lfingers 7.12502 0 0
lthumb 15.7195 7.99598 0
rclavicle -9.21615e-14 2.22639e-14 0
rhumerus -49.1828 4.72459 -82.2234
rradius 32.0705 0 0
rwrist -17.0296 0 0
rhand -26.3222 -25.9293 0
rfingers 7.12502 0 0
rthumb 0.234585 -55.9089 0
312
root 9.96171 16.6666 6.98014 7.72959 8.2463 4.80476
lfemur 15.9951 3.33043 -27.0921
ltibia 0.340213 0 0
lfoot -13.6537 -0.511727 0
ltoes -0.0552832 0 0
rfemur -43.4914 13.1985 2.96424
rtibia 24.1019 0 0
rfoot -29.2933 -17.9163 0
rtoes -21.2236 0 0
lowerback -8.30569 -4.89374 -6.67114
upperback -0.789649 -5.983 1.91753
thorax 4.71389 -3.11905 4.97317
lowerneck -19.1973 -5.14094 -12.6931
upperneck 21.7461 -6.49904 12.2372
head 11.0472 -2.59934 5.62217
lclavicle -9.13404e-14 2.19326e-14 0
lhumerus -13.3819 -38.7427 92.1215
lradius 39.0825 0 0
lwrist 16.5904 0 0
lhand -10.2162 -21.3631 0
lfingers 7.12502 0 0
lthumb 15.7755 8.01471 0
rclavicle -9.13404e-14 2.19326e-14 0
rhumerus -49.1804 4.67723 -82.1989
rradius 31.9006 0 0
rwrist -16.9337 0 0
rhand -26.3249 -25.9668 0
rfingers 7.12502 0 0
rthumb 0.231986 -55.9464 0
313
root 9.9482 16.6644 7.14594 7.72204 8.43749 4.71408
lfemur 16.2452 3.37863 -26.7326
ltibia 0.855284 0 0
lfoot -13.0116 -0.541334 0
ltoes -0.314263 0 0
rfemur -43.4873 13.1708 3.1984
rtibia 23.9911 0 0
rfoot -29.0551 -17.5953 0
rtoes -21.1093 0 0
lowerback -8.30746 -4.91845 -6.63178
upperback -0.813376 -6.01986 1.94544
thorax 4.69203 -3.1363 4.97809
lowerneck -19.1764 -5.16696 -12.7235
upperneck 21.7201 -6.54124 12.2937
head 11.0434 -2.61516 5.64129
lclavicle -9.01365e-14 2.15075e-14 0
lhumerus -13.6232 -38.6895 92.3797
lradius 38.9576 0 0
lwrist 16.5103 0 0
lhand -10.1623 -21.3492 0
lfingers 7.12502 0 0
lthumb 15.8274 8.02509 0
rclavicle -9.01365e-14 2.15075e-14 0
rhumerus -49.1732 4.62302 -82.1701
rradius 31.7358 0 0
rwrist -16.8421 0 0
rhand -26.3377 -25.9923 0
rfingers 7.12502 0 0
rthumb 0.219634 -55.9719 0
314
root 9.93307 16.6622 7.31501 7.70491 8.62199 4.60257
lfemur 16.4483 3.44228 -26.3257
ltibia 1.53458 0 0
lfoot -12.2831 -0.558538 0
ltoes -0.613015 0 0
rfemur -43.4487 13.0836 3.51494
rtibia 23.9992 0 0
rfoot -28.7485 -17.2119 0
rtoes -20.9596 0 0
lowerback -8.29766 -4.94031 -6.57535
upperback -0.838899 -6.05492 1.97841
thorax 4.66024 -3.15222 4.97999
lowerneck -19.162 -5.19076 -12.7542
upperneck 21.691 -6.58075 12.3563
head 11.0396 -2.62891 5.66318
lclavicle -8.85744e-14 2.09952e-14 0
lhumerus -13.9009 -38.5455 92.6544
lradius 38.7611 0 0
lwrist 16.3553 0 0
lhand -10.1126 -21.3434 0
lfingers 7.12502 0 0
lthumb 15.8753 8.02764 0
rclavicle -8.85744e-14 2.09952e-14 0
rhumerus -49.1609 4.563 -82.1373
rradius 31.5765 0 0
rwrist -16.755 0 0
rhand -26.3601 -26.0062 0
rfingers 7.12502 0 0
rthumb 0.198022 -55.9858 0
